<svg width="20" height="14" viewBox="0 0 20 14" fill="none" xmlns="http://www.w3.org/2000/svg">
<path d="M13.3035 6.99993C12.7753 6.99993 12.2785 6.71869 12.0097 6.26868L10.0003 2.93743L7.9941 6.26868C7.72222 6.72181 7.22535 7.00306 6.69722 7.00306C6.5566 7.00306 6.41597 6.98431 6.2816 6.94368L2.00035 5.71868V11.2812C2.00035 11.7406 2.31285 12.1406 2.7566 12.2499L9.51285 13.9406C9.8316 14.0187 10.166 14.0187 10.4816 13.9406L17.2441 12.2499C17.6878 12.1374 18.0003 11.7374 18.0003 11.2812V5.71868L13.7191 6.94056C13.5847 6.98118 13.4441 6.99993 13.3035 6.99993ZM19.9472 3.49368L18.3378 0.281184C18.241 0.0874344 18.0316 -0.0250656 17.816 0.00305938L10.0003 0.999934L12.866 5.75306C12.9847 5.94993 13.2222 6.04368 13.4441 5.98118L19.6285 4.21556C19.9378 4.12493 20.0878 3.78118 19.9472 3.49368ZM1.66285 0.281184L0.0534711 3.49368C-0.0902789 3.78118 0.0628461 4.12493 0.369096 4.21243L6.55347 5.97806C6.77535 6.04056 7.01285 5.94681 7.1316 5.74993L10.0003 0.999934L2.1816 0.00305938C1.96597 -0.0219406 1.75972 0.0874344 1.66285 0.281184Z" fill="#3F4E65"/>
</svg>
