<svg width="25" height="18" viewBox="0 0 25 18" fill="none" xmlns="http://www.w3.org/2000/svg">
<path d="M24.4475 4.09209C24.295 3.87908 24.0904 3.77258 23.8336 3.77258H7.48707L7.04341 2.61757C6.93107 2.23889 6.7786 1.91543 6.586 1.6472C6.39341 1.37897 6.18877 1.18963 5.9721 1.07918C5.75543 0.968728 5.56685 0.893781 5.40636 0.854335C5.24586 0.814889 5.08536 0.795166 4.92487 0.795166H1.62668C1.41803 0.795166 1.24149 0.866169 1.09704 1.00817C0.952594 1.15018 0.880371 1.33163 0.880371 1.55253C0.880371 1.67876 0.91247 1.80104 0.976669 1.91938C1.04087 2.03772 1.13315 2.12844 1.25352 2.19155C1.3739 2.25467 1.49828 2.28622 1.62668 2.28622H4.92487C4.98907 2.28622 5.04925 2.29411 5.10543 2.30989C5.1616 2.32567 5.23784 2.39273 5.33413 2.51107C5.43043 2.62941 5.51068 2.80691 5.57488 3.04359L9.02783 12.5248C9.05993 12.6195 9.11209 12.7102 9.18432 12.797C9.25654 12.8838 9.3408 12.9508 9.4371 12.9982C9.53339 13.0455 9.63772 13.0692 9.75006 13.0692H20.1502C20.3107 13.0692 20.4592 13.0218 20.5956 12.9272C20.732 12.8325 20.8243 12.7142 20.8724 12.5722L24.5558 4.79029C24.6361 4.53783 24.5999 4.3051 24.4475 4.09209ZM19.6206 11.5545H10.3519L7.89634 5.2873H22.7262L19.6206 11.5545ZM18.2323 13.8905C17.7026 13.8905 17.2492 14.0759 16.8721 14.4467C16.4949 14.8175 16.3063 15.2633 16.3063 15.784C16.3063 16.3047 16.4949 16.7504 16.8721 17.1212C17.2492 17.492 17.7026 17.6774 18.2323 17.6774C18.7619 17.6774 19.2153 17.492 19.5925 17.1212C19.9696 16.7504 20.1582 16.3047 20.1582 15.784C20.1582 15.2633 19.9696 14.8175 19.5925 14.4467C19.2153 14.0759 18.7619 13.8905 18.2323 13.8905ZM11.2988 13.8905C10.9458 13.8905 10.6208 13.9773 10.3238 14.1509C10.0269 14.3245 9.7942 14.5532 9.62568 14.8373C9.45716 15.1213 9.3729 15.4368 9.3729 15.784C9.3729 16.3047 9.56148 16.7504 9.93865 17.1212C10.3158 17.492 10.7692 17.6774 11.2988 17.6774C11.8285 17.6774 12.2819 17.492 12.6591 17.1212C13.0362 16.7504 13.2248 16.3047 13.2248 15.784C13.2248 15.6577 13.2128 15.5315 13.1887 15.4053C13.1646 15.2791 13.1285 15.1607 13.0804 15.0503C13.0322 14.9398 12.972 14.8333 12.8998 14.7308C12.8276 14.6282 12.7473 14.5335 12.6591 14.4467C12.5708 14.36 12.4745 14.2811 12.3702 14.2101C12.2658 14.1391 12.1575 14.0799 12.0452 14.0326C11.9328 13.9852 11.8124 13.9497 11.684 13.9261C11.5556 13.9024 11.4272 13.8905 11.2988 13.8905Z" fill="white"/>
</svg>
