<svg width="23" height="20" viewBox="0 0 23 20" fill="none" xmlns="http://www.w3.org/2000/svg">
<path d="M22.9884 1.21692L19.5054 18.7774C19.5054 18.7774 19.0183 19.9953 17.6788 19.4107L9.6414 13.2487L6.71884 11.8362L1.79905 10.1799C1.79905 10.1799 1.04404 9.91209 0.970912 9.32755C0.897787 8.74301 1.82343 8.42644 1.82343 8.42644L21.3807 0.754405C21.3807 0.754405 22.9882 0.0481401 22.9882 1.21723" fill="white"/>
<path d="M9.02371 18.5799C9.02371 18.5799 8.7891 18.558 8.4966 17.6324C8.20456 16.7069 6.71875 11.8358 6.71875 11.8358L18.5312 4.33442C18.5312 4.33442 19.2132 3.92035 19.1888 4.33442C19.1888 4.33442 19.3106 4.40755 18.9451 4.74849C18.5799 5.08959 9.66584 13.1024 9.66584 13.1024" fill="#D2E5F1"/>
<path d="M12.7233 15.6112L9.54433 18.5097C9.54433 18.5097 9.29571 18.6983 9.02393 18.5801L9.63269 13.1963" fill="#B5CFE4"/>
</svg>
